inDegrees=yes
name=ik_S41_A08_T01
DataType=double
version=3
OpenSimVersion=4.3-2021-08-27-4bc7ad9
endheader
time	pelvis_tilt	pelvis_list	pelvis_rotation	pelvis_tx	pelvis_ty	pelvis_tz	hip_flexion_r	hip_adduction_r	hip_rotation_r	knee_angle_r	knee_angle_r_beta	ankle_angle_r	subtalar_angle_r	mtp_angle_r	hip_flexion_l	hip_adduction_l	hip_rotation_l	knee_angle_l	knee_angle_l_beta	ankle_angle_l	subtalar_angle_l	mtp_angle_l	lumbar_extension	lumbar_bending	lumbar_rotation	arm_flex_r	arm_add_r	arm_rot_r	elbow_flex_r	pro_sup_r	wrist_flex_r	wrist_dev_r	arm_flex_l	arm_add_l	arm_rot_l	elbow_flex_l	pro_sup_l	wrist_flex_l	wrist_dev_l
11.59999999999984	-8.692555351884927	-3.077342182898949	35.11027834678444	0	0.9399999999999999	0	44.91532173556839	-10.27936478671298	-10.39907329384388	53.05983976869078	0.9260689045442806	0	0	0	44.91532173556839	-10.27936478671298	-10.39907329384388	53.05983976869078	0.9260689045442806	0	0	0	-8.143572274755122	0.5622777492146422	3.672207461501657	28.19705265994439	-4.509215258634913	1.746345987128675	9.724568173670997	84.34731449876713	0	0	101.4936235895275	-24.03705737753684	5.021764954113419	86.87099814677032	89.2584988537091	0	0
11.61999999999984	-8.673926200232392	-3.07384400830201	35.1771930557756	0	0.9399999999999999	0	44.91535868565755	-10.27894018604888	-10.39868384250923	53.06040864836768	0.9260788333676901	0	0	0	44.91535868565755	-10.27894018604888	-10.39868384250923	53.06040864836768	0.9260788333676901	0	0	0	-8.126603622850626	0.5573451102617268	3.656497860445649	28.1617334506164	-4.511431468779804	1.69416310679879	9.722225495296634	84.34761214539616	0	0	100.6702256469819	-24.233521744334	4.764918516673931	86.58795001953033	88.52658557709805	0	0
11.63999999999984	-8.655555416400263	-3.07207025976704	35.24864564717102	0	0.9399999999999999	0	44.91539122159931	-10.27856692639744	-10.39834122960763	53.0609099040385	0.9260875819295403	0	0	0	44.91539122159931	-10.27856692639744	-10.39834122960763	53.0609099040385	0.9260875819295403	0	0	0	-8.112381625343431	0.5576263143698618	3.59801550955017	28.13576354540202	-4.454745118201213	1.812999257526865	9.701706258605052	84.21761532284313	0	0	99.77042405725786	-24.49561530722579	4.481584922571871	86.21755725265321	87.73328929368593	0	0
11.65999999999984	-8.625501989920666	-3.065009785025902	35.31202220053074	0	0.9399999999999999	0	44.91542654843255	-10.27816211636822	-10.39796945671912	53.06145435046865	0.9260970843123472	0	0	0	44.91542654843255	-10.27816211636822	-10.39796945671912	53.06145435046865	0.9260970843123472	0	0	0	-8.084973285243272	0.5530056837230471	3.558104502134015	28.11722845937754	-4.43396738169399	1.854079628126568	9.723503248583111	84.12567528724091	0	0	98.76973116511822	-24.72065779460204	4.209658610153332	85.69545305468181	86.86711943657662	0	0
11.67999999999984	-8.583579533514223	-3.055986115493996	35.36528710158303	0	0.9399999999999999	0	44.91545624980105	-10.27782294397643	-10.39765755335662	53.06191324798736	0.9261050935849777	0	0	0	44.91545624980105	-10.27782294397643	-10.39765755335662	53.06191324798736	0.9261050935849777	0	0	0	-8.045932762391326	0.5398238680478812	3.53530401275788	28.07662405580554	-4.39440406206795	1.857238672944761	9.70733137032601	84.09360376535535	0	0	97.62737603384045	-24.87785099384831	3.855027119518196	85.02700742373894	85.9282582253187	0	0
11.69999999999984	-8.569307198028779	-3.054938584305702	35.44130257898137	0	0.9399999999999999	0	44.91549762027601	-10.27734917853355	-10.3972222111937	53.06255014116963	0.926116209467992	0	0	0	44.91549762027601	-10.27734917853355	-10.3972222111937	53.06255014116963	0.926116209467992	0	0	0	-8.035143062879587	0.5426156483034537	3.476810427919513	28.11678456514969	-4.389509908174538	1.855527481052571	9.773081363335578	84.11866437689532	0	0	95.2820728849689	-25.21920816753227	2.619323119433884	85.35335130317249	84.93748950823441	0	0
11.71999999999984	-8.527102434349006	-3.057563102869231	35.4971617157256	0	0.9399999999999999	0	44.91553105020643	-10.27696750119168	-10.39687107300159	53.06306583978591	0.9261252101067941	0	0	0	44.91553105020643	-10.27696750119168	-10.39687107300159	53.06306583978591	0.9261252101067941	0	0	0	-8.001833357109943	0.5170463112169514	3.46882632049298	28.1129712017106	-4.349903501316996	1.841715794574386	9.732713487142384	84.09304379830385	0	0	93.97421474216669	-25.23411445454818	2.049399216739453	85.5404556506805	84.58770264310701	0	0
11.73999999999984	-8.478334570076621	-3.055278316540228	35.51977703249669	0	0.9399999999999999	0	44.9155554118587	-10.27669090545203	-10.39661609503952	53.06344337436506	0.9261317993282403	0	0	0	44.9155554118587	-10.27669090545203	-10.39661609503952	53.06344337436506	0.9261317993282403	0	0	0	-7.957145951182605	0.4822135439444134	3.514378545136931	28.10464456363012	-4.309730758514609	1.816985942575443	9.677494791181763	84.05077579208306	0	0	92.49237002431479	-25.08781717582034	1.536277922124628	84.72409382816528	83.50551716651933	0	0
11.75999999999984	-8.457135372266492	-3.043548486176292	35.38125662490633	0	0.9399999999999999	0	44.91559589992149	-10.2762298051452	-10.39619139532909	53.06406846506553	0.9261427092190871	0	0	0	44.91559589992149	-10.2762298051452	-10.39619139532909	53.06406846506553	0.9261427092190871	0	0	0	-7.921964348569849	0.452612708576617	3.64742148766642	28.11638129778279	-4.27369450711561	1.884245441234879	9.688747468627389	83.98894527465745	0	0	90.89622298436629	-24.84617946678758	1.073876221131828	81.742393508177	80.59878831695539	0	0
11.77999999999984	-8.427306648626315	-3.047347329967827	35.20008658867802	0	0.9399999999999999	0	44.91563562496906	-10.27578372590061	-10.3957785034237	53.06468941608787	0.9261535468589205	0	0	0	44.91563562496906	-10.27578372590061	-10.3957785034237	53.06468941608787	0.9261535468589205	0	0	0	-7.8906505744726	0.3992497969006413	3.849330081014315	28.22765271155763	-4.209828813778901	1.798816830770356	9.607921236332228	84.01576955947044	0	0	90.84920418295791	-24.74656465843603	1.307429789794109	79.58958000001842	78.78502226468635	0	0
11.79999999999984	-8.390822925871145	-3.038022681329413	35.11371789761112	0	0.9399999999999999	0	44.91567003006978	-10.27539248731361	-10.39541783755578	53.06522038759438	0.9261628140599434	0	0	0	44.91567003006978	-10.27539248731361	-10.39541783755578	53.06522038759438	0.9261628140599434	0	0	0	-7.847976483831977	0.3631150834536806	3.976416915211247	28.2306279546553	-4.20179732011691	1.615055872784227	9.568516713692105	84.07638066619592	0	0	89.28770322015974	-24.36160406085947	0.5568261804447682	78.51913059890312	77.65746129015504	0	0
11.81999999999984	-8.357710237702568	-3.050380101700779	35.03324870969294	0	0.9399999999999999	0	44.91569929787045	-10.27506047907809	-10.39511147528431	53.06567277903616	0.9261707097801103	0	0	0	44.91569929787045	-10.27506047907809	-10.39511147528431	53.06567277903616	0.9261707097801103	0	0	0	-7.821817220886476	0.316234226444047	4.07349717834581	28.2600210600685	-4.158976107092959	1.414278268157053	9.546566741150654	84.14550927865412	0	0	87.78718890683948	-24.04029828888588	-0.2623044164738664	77.52515854064048	76.74652238517081	0	0
11.83999999999984	-8.341969128765591	-3.045422138001991	35.00009431513461	0	0.9399999999999999	0	44.91572645645387	-10.27475300520615	-10.39482752855653	53.06609309753429	0.9261780457218097	0	0	0	44.91572645645387	-10.27475300520615	-10.39482752855653	53.06609309753429	0.9261780457218097	0	0	0	-7.802904727968392	0.3023282131181154	4.127166280052903	28.30057787937562	-4.17613248270189	1.251198449663558	9.52190195966773	84.21438655043143	0	0	86.276880857918	-23.79601800774332	-1.265797078457674	77.54829096930909	76.58711726437913	0	0
11.85999999999984	-8.299334429564356	-3.051843548709244	34.9466498437091	0	0.9399999999999999	0	44.91575127408056	-10.27447255101706	-10.39456833924824	53.0664776029907	0.926184756608016	0	0	0	44.91575127408056	-10.27447255101706	-10.39456833924824	53.0664776029907	0.926184756608016	0	0	0	-7.767557011104	0.2612928726612064	4.193106183254247	28.29919206744588	-4.094978649044917	1.138870777295466	9.499002489946943	84.21000581968293	0	0	84.67587970522085	-23.41718330432136	-2.149716461940257	76.6423540632473	76.02252942896817	0	0
11.87999999999984	-8.264749497827488	-3.041005736998707	34.91165065259064	0	0.9399999999999999	0	44.91577585250928	-10.27419503545577	-10.39431176229006	53.06685848683249	0.9261914042851229	0	0	0	44.91577585250928	-10.27419503545577	-10.39431176229006	53.06685848683249	0.9261914042851229	0	0	0	-7.730582776865107	0.2456378213078593	4.220436177682133	28.27851945589145	-4.053196983568239	1.16867192796321	9.466695126151714	84.16803262106437	0	0	83.00367511443456	-23.01149840132524	-3.170664205904185	75.74359966289011	75.69026379337252	0	0
11.89999999999984	-8.235982625772733	-3.017581003684188	34.91055209738131	0	0.9399999999999999	0	44.91580597013051	-10.27385436772036	-10.39399694552631	53.06732411563625	0.9261995310408406	0	0	0	44.91580597013051	-10.27385436772036	-10.39399694552631	53.06732411563625	0.9261995310408406	0	0	0	-7.691207997170782	0.2452757687137533	4.23480099246961	28.20903480183332	-4.065083917850687	1.156399472331102	9.492180014348417	84.14648536250839	0	0	81.28498576159021	-22.58292529288983	-4.370675197755975	74.86412364397258	75.61330870145447	0	0
11.91999999999983	-8.206610850660303	-3.002297051716713	34.94387540170145	0	0.9399999999999999	0	44.9158452835722	-10.27340986827406	-10.39358604681405	53.0679316297476	0.926210134162336	0	0	0	44.9158452835722	-10.27340986827406	-10.39358604681405	53.0679316297476	0.926210134162336	0	0	0	-7.655991248401606	0.2385803628564207	4.242128223291753	28.16895995212161	-4.073383236673243	1.163138836758494	9.501312038334495	84.12701391767665	0	0	79.56545073818589	-22.1301403994411	-5.448312656378765	76.17099357967804	76.44909168914673	0	0
11.93999999999983	-8.177809906552135	-2.993193950089305	34.91632963690261	0	0.9399999999999999	0	44.91587770454885	-10.2730442792866	-10.39324773020715	53.06843347506136	0.9262188930153968	0	0	0	44.91587770454885	-10.2730442792866	-10.39324773020715	53.06843347506136	0.9262188930153968	0	0	0	-7.62449444729506	0.2233000214797257	4.280627803826778	28.09247497169399	-4.044965827039552	1.137400944391429	9.472933859181207	84.19017216766829	0	0	77.82963250338049	-21.62324530643157	-6.397647186232321	77.4559431727517	77.21794493700875	0	0
11.95999999999983	-8.13533911525186	-2.99518335056589	34.9051950911002	0	0.9399999999999999	0	44.91593650977667	-10.2723781922556	-10.39263212052174	53.06933884401366	0.9262346946845599	0	0	0	44.91593650977667	-10.2723781922556	-10.39263212052174	53.06933884401366	0.9262346946845599	0	0	0	-7.588097635561274	0.1964661696286741	4.277936831066159	28.10627796708151	-3.953559287749709	1.311786251840468	9.410965205194838	84.08378232690868	0	0	76.04720410784199	-20.93374761812236	-7.326012771314288	74.25452433115618	76.86386035741263	0	0
11.97999999999983	-8.093013829635781	-2.999092522646369	34.90012645207624	0	0.9399999999999999	0	44.91599304464944	-10.27173914158726	-10.39204092001911	53.0702097428632	0.9262498947369361	0	0	0	44.91599304464944	-10.27173914158726	-10.39204092001911	53.0702097428632	0.9262498947369361	0	0	0	-7.552068601988505	0.1657892809172175	4.288909606489467	28.04520098384015	-3.878772018830675	1.36808549550991	9.40129217375153	84.02979742499012	0	0	74.28981555038607	-20.22614815348993	-8.165497434194242	70.4979874217122	76.63481656025841	0	0
11.99999999999983	-8.088118030749685	-3.018160773838479	34.88094395040424	0	0.9399999999999999	0	44.91604056079411	-10.27120266233164	-10.39154429120523	53.07094161927688	0.9262626683900724	0	0	0	44.91604056079411	-10.27120266233164	-10.39154429120523	53.07094161927688	0.9262626683900724	0	0	0	-7.557107779994868	0.1458758730613332	4.296468940894639	28.04533316067278	-3.842738548644155	1.40495968554661	9.416761016384358	83.9571985124425	0	0	72.60616445187054	-19.66991788900361	-8.891892432605294	69.18145083661204	77.02991848185229	0	0
12.01999999999983	-8.083421484707936	-3.023122261159945	34.7603951707743	0	0.9399999999999999	0	44.91607788650914	-10.27078238226652	-10.39115478800737	53.0715173925463	0.9262727175293689	0	0	0	44.91607788650914	-10.27078238226652	-10.39115478800737	53.0715173925463	0.9262727175293689	0	0	0	-7.547053488362189	0.1162240510328669	4.432239295165219	28.01481871006116	-3.860613914435682	1.341056411988208	9.41899624384226	83.99485147670467	0	0	69.47704284967332	-18.35608905244306	-9.85415143951492	68.9471071254751	78.12190143052491	0	0
